# xmcd CD database file
#
# Track frame offsets:
#	182
#	13567
#	29325
#	45527
#	62915
#	80207
#	94150
#	106757
#	118172
#	131342
#	144497
#	156835
#	168942
#	179130
#	192382
#	212492
#	225115
#	241467
#	260995
#	271982
#
# Disc length: 3803 seconds
#
# Revision: 0
# Processed by: cddbd v1.4PL0 Copyright (c) Steve Scherf et al.
# Submitted via: CDex 1.50beta9
#
DISCID=1b0ed914
DTITLE=Crystal Gayle - Romantic Favourites
DYEAR=1995
DGENRE=Country
TTITLE0=Talking In Your Sleep
TTITLE1=What He's Doing Now
TTITLE2=Just Like The Blues
TTITLE3=Someday Soon
TTITLE4=99% Of The Time
TTITLE5=Right In The Plam Of Your Hand
TTITLE6=Everybody's Reaching Out For Someone
TTITLE7=Hello, I Love You
TTITLE8=I Wanna Come Back To You
TTITLE9=Heart Mender
TTITLE10=What You've Done For Me
TTITLE11=Beyond You
TTITLE12=Too Deep For Tears
TTITLE13=Once In A Very Blue Moon
TTITLE14=Faithless Love
TTITLE15=I Still Miss Someone
TTITLE16=Just An Old Love
TTITLE17=More Than Love
TTITLE18=Somebody Loves You
TTITLE19=The Trouble With Me (Is You)
EXTD=YEAR: 1995
EXTT0=
EXTT1=
EXTT2=
EXTT3=
EXTT4=
EXTT5=
EXTT6=
EXTT7=
EXTT8=
EXTT9=
EXTT10=
EXTT11=
EXTT12=
EXTT13=
EXTT14=
EXTT15=
EXTT16=
EXTT17=
EXTT18=
EXTT19=
PLAYORDER=
